<svg width="382" height="58" viewBox="0 0 382 58" fill="none" xmlns="http://www.w3.org/2000/svg">
<path d="M2 7L2 51" stroke="#9668EF" stroke-width="3" stroke-linecap="round"/>
<path d="M170 7L170 51" stroke="white" stroke-width="3" stroke-linecap="round"/>
<path d="M86.0001 7L86.0001 51" stroke="#9668EF" stroke-width="3" stroke-linecap="round"/>
<path d="M254 7L254 51" stroke="white" stroke-width="3" stroke-linecap="round"/>
<path d="M44.0001 2L44.0001 56" stroke="#9668EF" stroke-width="3" stroke-linecap="round"/>
<path d="M212 2L212 56" stroke="white" stroke-width="3" stroke-linecap="round"/>
<path d="M128 2L128 56" stroke="white" stroke-width="3" stroke-linecap="round"/>
<path d="M296 10L296 50" stroke="white" stroke-width="3" stroke-linecap="round"/>
<path d="M15.9999 12L15.9999 47" stroke="#9668EF" stroke-width="3" stroke-linecap="round"/>
<path d="M184 12L184 47" stroke="white" stroke-width="3" stroke-linecap="round"/>
<path d="M100 12L100 47" stroke="#9668EF" stroke-width="3" stroke-linecap="round"/>
<path d="M268 12L268 47" stroke="white" stroke-width="3" stroke-linecap="round"/>
<path d="M58 4L58 54" stroke="#9668EF" stroke-width="3" stroke-linecap="round"/>
<path d="M226 4L226 54" stroke="white" stroke-width="3" stroke-linecap="round"/>
<path d="M142 4L142 54" stroke="white" stroke-width="3" stroke-linecap="round"/>
<path d="M310 4L310 54" stroke="white" stroke-width="3" stroke-linecap="round"/>
<path d="M30.0001 4L30.0001 54" stroke="#9668EF" stroke-width="3" stroke-linecap="round"/>
<path d="M198 4L198 54" stroke="white" stroke-width="3" stroke-linecap="round"/>
<path d="M114 4L114 54" stroke="#9668EF" stroke-width="3" stroke-linecap="round"/>
<path d="M282 11L282 51" stroke="white" stroke-width="3" stroke-linecap="round"/>
<path d="M71.9999 2L71.9999 56" stroke="#9668EF" stroke-width="3" stroke-linecap="round"/>
<path d="M240 2L240 56" stroke="white" stroke-width="3" stroke-linecap="round"/>
<path d="M156 2L156 56" stroke="white" stroke-width="3" stroke-linecap="round"/>
<path d="M324 2L324 56" stroke="white" stroke-width="3" stroke-linecap="round"/>
<path d="M9.00006 11L9.00006 47" stroke="#9668EF" stroke-width="3" stroke-linecap="round"/>
<path d="M177 11L177 47" stroke="white" stroke-width="3" stroke-linecap="round"/>
<path d="M92.9999 11L92.9999 47" stroke="#9668EF" stroke-width="3" stroke-linecap="round"/>
<path d="M261 11L261 47" stroke="white" stroke-width="3" stroke-linecap="round"/>
<path d="M50.9999 16L50.9999 42" stroke="#9668EF" stroke-width="3" stroke-linecap="round"/>
<path d="M219 21L219 38" stroke="white" stroke-width="3" stroke-linecap="round"/>
<path d="M135 16L135 42" stroke="white" stroke-width="3" stroke-linecap="round"/>
<path d="M303 16L303 42" stroke="white" stroke-width="3" stroke-linecap="round"/>
<path d="M23 7L23 52" stroke="#9668EF" stroke-width="3" stroke-linecap="round"/>
<path d="M191 7L191 52" stroke="white" stroke-width="3" stroke-linecap="round"/>
<path d="M107 7L107 52" stroke="#9668EF" stroke-width="3" stroke-linecap="round"/>
<path d="M275 8L275 53" stroke="white" stroke-width="3" stroke-linecap="round"/>
<path d="M65.0001 10L65.0001 49" stroke="#9668EF" stroke-width="3" stroke-linecap="round"/>
<path d="M233 10L233 49" stroke="white" stroke-width="3" stroke-linecap="round"/>
<path d="M149 10L149 49" stroke="white" stroke-width="3" stroke-linecap="round"/>
<path d="M317 10L317 49" stroke="white" stroke-width="3" stroke-linecap="round"/>
<path d="M37 3L37 55" stroke="#9668EF" stroke-width="3" stroke-linecap="round"/>
<path d="M205 3L205 55" stroke="white" stroke-width="3" stroke-linecap="round"/>
<path d="M121 3L121 55" stroke="#9668EF" stroke-width="3" stroke-linecap="round"/>
<path d="M289 4L289 56" stroke="white" stroke-width="3" stroke-linecap="round"/>
<path d="M79 11L79 48" stroke="#9668EF" stroke-width="3" stroke-linecap="round"/>
<path d="M247 11L247 48" stroke="white" stroke-width="3" stroke-linecap="round"/>
<path d="M163 11L163 48" stroke="white" stroke-width="3" stroke-linecap="round"/>
<path d="M331 11L331 48" stroke="white" stroke-width="3" stroke-linecap="round"/>
<path d="M366 7L366 51" stroke="white" stroke-width="3" stroke-linecap="round"/>
<path d="M380 12L380 47" stroke="white" stroke-width="3" stroke-linecap="round"/>
<path d="M338 4L338 54" stroke="white" stroke-width="3" stroke-linecap="round"/>
<path d="M352 2L352 56" stroke="white" stroke-width="3" stroke-linecap="round"/>
<path d="M373 11L373 47" stroke="white" stroke-width="3" stroke-linecap="round"/>
<path d="M345 10L345 49" stroke="white" stroke-width="3" stroke-linecap="round"/>
<path d="M359 11L359 48" stroke="white" stroke-width="3" stroke-linecap="round"/>
</svg>
